<svg xmlns="http://www.w3.org/2000/svg" width="32" height="32" viewBox="0 0 32 32"><title>warning</title><path d="M14.333 26c0-1 .667-1.667 1.667-1.667S17.667 25 17.667 26 17 27.667 16 27.667 14.333 27 14.333 26zM15 22.667l-.333-15h2.667l-.333 15z"/><path d="M16 2.667c1 0 2 .5 2.5 1.333l10.333 20.833c.5.833.5 2 0 2.833s-1.5 1.5-2.5 1.5H5.666c-1 0-2-.5-2.5-1.5-.5-.833-.5-2 0-2.833L13.499 4c.5-.833 1.5-1.333 2.5-1.333zM16 1c-1.5 0-3 .833-4 2.333L1.667 24.166c-1.667 3 .5 6.833 4 6.833h20.667c3.5 0 5.667-3.833 4-6.833L20.001 3.333c-1-1.667-2.5-2.333-4-2.333z"/></svg>